<?xml version="1.0" encoding="UTF-8" standalone="no"?>
<!-- Created with Inkscape (http://www.inkscape.org/) -->

<svg
   xmlns:dc="http://purl.org/dc/elements/1.1/"
   xmlns:cc="http://creativecommons.org/ns#"
   xmlns:rdf="http://www.w3.org/1999/02/22-rdf-syntax-ns#"
   xmlns:svg="http://www.w3.org/2000/svg"
   xmlns="http://www.w3.org/2000/svg"
   xmlns:sodipodi="http://sodipodi.sourceforge.net/DTD/sodipodi-0.dtd"
   xmlns:inkscape="http://www.inkscape.org/namespaces/inkscape"
   width="38.227795mm"
   height="38.227795mm"
   viewBox="0 0 38.227795 38.227795"
   version="1.1"
   id="svg8"
   inkscape:version="0.92.4 (5da689c313, 2019-01-14)"
   sodipodi:docname="AddButton.svg">
  <defs
     id="defs2" />
  <sodipodi:namedview
     id="base"
     pagecolor="#ffffff"
     bordercolor="#666666"
     borderopacity="1.0"
     inkscape:pageopacity="0.0"
     inkscape:pageshadow="2"
     inkscape:zoom="1.4"
     inkscape:cx="39.913766"
     inkscape:cy="92.503695"
     inkscape:document-units="mm"
     inkscape:current-layer="layer1"
     showgrid="false"
     inkscape:window-width="1920"
     inkscape:window-height="1001"
     inkscape:window-x="-9"
     inkscape:window-y="-9"
     inkscape:window-maximized="1" />
  <metadata
     id="metadata5">
    <rdf:RDF>
      <cc:Work
         rdf:about="">
        <dc:format>image/svg+xml</dc:format>
        <dc:type
           rdf:resource="http://purl.org/dc/dcmitype/StillImage" />
        <dc:title />
      </cc:Work>
    </rdf:RDF>
  </metadata>
  <g
     inkscape:label="Calque 1"
     inkscape:groupmode="layer"
     id="layer1"
     transform="translate(-70.182977,-118.14886)">
    <circle
       style="fill:none;fill-opacity:1;stroke:#7e7e7e;stroke-width:3.2650001;stroke-linejoin:round;stroke-miterlimit:4;stroke-dasharray:none;stroke-opacity:1"
       id="path823"
       cx="89.296875"
       cy="137.26276"
       r="17.481398" />
    <path
       style="fill:#7e7e7e;fill-opacity:1;stroke:#7e7e7e;stroke-width:3.97264338;stroke-linejoin:miter;stroke-miterlimit:49.79999924;stroke-dasharray:none;stroke-opacity:1"
       d="m 337.5,474.99023 c -5.93571,0 -10.71484,5.28011 -10.71484,11.83789 v 21.24415 h -21.24414 c -6.55779,0 -11.83789,4.77913 -11.8379,10.71484 0,5.93571 5.28011,10.71484 11.8379,10.71484 h 21.24414 v 21.2461 c 0,6.55778 4.77913,11.83789 10.71484,11.83789 5.93571,0 10.71484,-5.28011 10.71484,-11.83789 v -21.2461 h -1.98437 v -1.98437 h 1.98437 v 1.98437 h 21.2461 c 6.55779,0 11.83789,-4.77913 11.83789,-10.71484 0,-5.93571 -5.2801,-10.71484 -11.83789,-10.71484 h -21.2461 v -21.24415 c 0,-6.55778 -4.77913,-11.83789 -10.71484,-11.83789 z m -10.71289,33.08399 h 1.95508 v 1.95508 h -1.95508 z m 19.44336,0 h 1.98437 v 1.95508 h -1.98437 z m -19.44336,19.44336 h 1.95508 v 1.98437 h -1.95508 z"
       transform="scale(0.26458333)"
       id="path921-2"
       inkscape:connector-curvature="0" />
  </g>
</svg>
