<?xml version="1.0" encoding="UTF-8" standalone="no"?>
<!-- Created with Inkscape (http://www.inkscape.org/) -->

<svg
   xmlns:dc="http://purl.org/dc/elements/1.1/"
   xmlns:cc="http://creativecommons.org/ns#"
   xmlns:rdf="http://www.w3.org/1999/02/22-rdf-syntax-ns#"
   xmlns:svg="http://www.w3.org/2000/svg"
   xmlns="http://www.w3.org/2000/svg"
   xmlns:sodipodi="http://sodipodi.sourceforge.net/DTD/sodipodi-0.dtd"
   xmlns:inkscape="http://www.inkscape.org/namespaces/inkscape"
   width="112.67684mm"
   height="112.69496mm"
   viewBox="0 0 112.67684 112.69496"
   version="1.1"
   id="svg8"
   inkscape:version="0.92.4 (5da689c313, 2019-01-14)"
   sodipodi:docname="addpictureimg.svg">
  <defs
     id="defs2" />
  <sodipodi:namedview
     id="base"
     pagecolor="#ffffff"
     bordercolor="#666666"
     borderopacity="1.0"
     inkscape:pageopacity="0.0"
     inkscape:pageshadow="2"
     inkscape:zoom="0.7"
     inkscape:cx="-36.652058"
     inkscape:cy="466.21185"
     inkscape:document-units="mm"
     inkscape:current-layer="layer1"
     showgrid="false"
     inkscape:window-width="1920"
     inkscape:window-height="1001"
     inkscape:window-x="-9"
     inkscape:window-y="-9"
     inkscape:window-maximized="1" />
  <metadata
     id="metadata5">
    <rdf:RDF>
      <cc:Work
         rdf:about="">
        <dc:format>image/svg+xml</dc:format>
        <dc:type
           rdf:resource="http://purl.org/dc/dcmitype/StillImage" />
        <dc:title></dc:title>
      </cc:Work>
    </rdf:RDF>
  </metadata>
  <g
     inkscape:label="Calque 1"
     inkscape:groupmode="layer"
     id="layer1"
     transform="translate(-44.384456,-21.616753)">
    <path
       style="fill:#787878;fill-opacity:1;stroke-width:0.26458332"
       d="M 95.042116,134.0302 C 70.188029,131.4652 49.841473,112.70201 45.319591,88.177099 39.69669,57.680691 60.017454,28.175094 90.516357,22.551733 c 28.424393,-5.240866 56.334083,12.029634 64.319143,39.80065 6.82545,23.73804 -2.38288,48.771967 -23.01371,62.565537 -10.61786,7.09899 -24.04768,10.42626 -36.779674,9.11228 z m 40.348954,-30.00594 v -4.365631 h 4.36562 4.36563 v -3.04271 -3.042704 h -4.36563 -4.36562 v -4.506314 -4.506312 l -3.10886,0.07454 -3.10885,0.07454 -0.0725,4.43177 -0.0726,4.431771 h -4.35922 -4.35923 v 3.042699 3.04271 h 4.36562 4.36563 v 4.365631 4.36562 h 3.175 3.175 z m -10.05417,1.19702 v -1.5811 l -4.43177,-0.0726 -4.43177,-0.0725 -0.0708,-6.548441 -0.0708,-6.548434 h -1.81812 -1.81813 l -4.7249,-7.383555 c -2.59869,-4.060957 -4.80062,-7.336758 -4.89317,-7.279557 -0.0926,0.0572 -0.95916,1.344625 -1.9258,2.86095 l -1.757533,2.756955 2.686153,4.191873 c 1.47738,2.305532 2.74566,4.346776 2.8184,4.536099 0.10188,0.26521 -0.25469,0.325942 -1.55343,0.264583 l -1.68567,-0.07964 -5.954583,-9.317243 c -3.275023,-5.124482 -6.014119,-9.319389 -6.086879,-9.322014 -0.07276,-0.0026 -2.815815,4.190137 -6.095677,9.317244 l -5.963388,9.322013 -1.511091,0.07935 -1.511094,0.07935 V 72.948919 55.473217 h 26.193742 26.19375 v 12.708397 12.708395 l 3.10886,-0.07454 3.10885,-0.07454 V 65.704032 50.66714 l -0.86407,-0.771961 -0.86407,-0.771962 H 100.73065 70.047339 l -0.864068,0.772046 -0.864071,0.772046 v 27.29549 27.295491 l 0.864071,0.77205 0.864068,0.77204 H 97.692124 125.3369 Z m -6.67223,-32.961059 c 1.25685,-0.525015 2.3445,-1.560192 3.0203,-2.874576 0.76694,-1.491662 0.58788,-3.952369 -0.38943,-5.351613 -1.46183,-2.092962 -4.05298,-2.988598 -6.40272,-2.213112 -2.14838,0.70903 -3.82613,2.998269 -3.83761,5.236315 -0.02,3.900607 4.05579,6.687439 7.60946,5.202986 z"
       id="path826"
       inkscape:connector-curvature="0" />
  </g>
</svg>
