<?xml version="1.0" encoding="UTF-8" standalone="no"?>
<!-- Created with Inkscape (http://www.inkscape.org/) -->

<svg
   xmlns:dc="http://purl.org/dc/elements/1.1/"
   xmlns:cc="http://creativecommons.org/ns#"
   xmlns:rdf="http://www.w3.org/1999/02/22-rdf-syntax-ns#"
   xmlns:svg="http://www.w3.org/2000/svg"
   xmlns="http://www.w3.org/2000/svg"
   xmlns:sodipodi="http://sodipodi.sourceforge.net/DTD/sodipodi-0.dtd"
   xmlns:inkscape="http://www.inkscape.org/namespaces/inkscape"
   version="1.1"
   id="svg3751"
   width="791.67017"
   height="791"
   viewBox="0 0 791.67017 791"
   sodipodi:docname="building_shop.svg"
   inkscape:version="0.92.4 (5da689c313, 2019-01-14)">
  <metadata
     id="metadata3757">
    <rdf:RDF>
      <cc:Work
         rdf:about="">
        <dc:format>image/svg+xml</dc:format>
        <dc:type
           rdf:resource="http://purl.org/dc/dcmitype/StillImage" />
        <dc:title />
      </cc:Work>
    </rdf:RDF>
  </metadata>
  <defs
     id="defs3755" />
  <sodipodi:namedview
     pagecolor="#ffffff"
     bordercolor="#666666"
     borderopacity="1"
     objecttolerance="10"
     gridtolerance="10"
     guidetolerance="10"
     inkscape:pageopacity="0"
     inkscape:pageshadow="2"
     inkscape:window-width="1920"
     inkscape:window-height="1001"
     id="namedview3753"
     showgrid="true"
     inkscape:lockguides="false"
     inkscape:zoom="0.19726563"
     inkscape:cx="-881.27698"
     inkscape:cy="1111.7359"
     inkscape:window-x="-9"
     inkscape:window-y="-9"
     inkscape:window-maximized="1"
     inkscape:current-layer="svg3751">
    <inkscape:grid
       type="xygrid"
       id="grid3802"
       originx="-97.19331"
       originy="-142.8929" />
  </sodipodi:namedview>
  <path
     id="path3878"
     style="fill:#ff0046;fill-opacity:1;stroke-width:0.78395218"
     d="m 666.98808,346.0597 c 1.18573,-1.3153 2.15587,-3.25279 2.15587,-4.30555 0,-3.02057 -31.62506,-65.74454 -34.14901,-67.72988 -4.74878,-3.73539 -12.10417,-0.37717 -12.10417,5.52635 0,3.87664 31.8686,67.27254 34.51784,68.66599 2.93801,1.54535 7.08334,0.61199 9.57947,-2.15691 z m -63.80981,2.00382 c 2.26632,-1.17196 4.03346,-4.14702 4.03346,-6.79051 0,-2.0179 -0.47155,-2.93082 -18.99692,-36.77763 -8.61379,-15.73784 -16.52605,-29.40801 -17.5828,-30.37815 -5.31746,-4.88163 -14.71661,1.14925 -12.1965,7.82577 2.08497,5.52374 34.22016,63.1231 36.30968,65.08178 2.55492,2.39493 5.18422,2.71879 8.43308,1.03874 z m -92.95109,0.26641 c 4.43132,-2.01907 4.47819,-2.4118 4.47819,-37.52683 0,-34.38636 -0.12878,-35.63694 -3.87634,-37.64257 -1.93666,-1.03647 -5.98971,-1.03647 -7.92637,0 -3.74756,2.00563 -3.87634,3.25621 -3.87634,37.64257 0,28.7255 0.14332,32.4986 1.30936,34.47256 2.11908,3.58732 6.05453,4.80248 9.8915,3.05424 z m -91.61785,-0.80853 c 2.83781,-2.23225 34.16381,-64.73884 34.16381,-68.16906 0,-3.26087 -3.71644,-6.999 -6.95837,-6.999 -5.59351,0 -5.46851,-0.18925 -22.89935,34.66597 -9.0175,18.03167 -16.38295,33.57165 -16.36767,34.53328 0.097,6.10342 7.33616,9.6858 12.06158,5.96878 z m -61.01636,0.0332 c 1.97961,-1.64293 33.24795,-65.02951 33.24795,-67.3996 0,-6.649 -6.89403,-10.22907 -11.98554,-6.22409 -1.28805,1.01318 -7.8051,13.18701 -18.21549,34.02645 -13.74499,27.51463 -16.1321,32.80296 -15.69837,34.77771 0.50656,2.30639 2.86439,5.02884 5.13389,5.92784 1.65556,0.6558 6.19905,-0.014 7.51756,-1.10831 z m -96.50684,24.68714 c -0.43705,-0.1835 13.00928,-27.93696 29.88075,-61.67434 l 30.67539,-61.34069 h 185.22358 185.22357 l 30.67153,61.33297 c 21.83274,43.6583 30.36869,61.44918 29.62063,61.73623 -1.25517,0.48166 -490.14766,0.42776 -491.29545,-0.0542 z m 301.96243,231.37354 c -2.8742,-2.84605 -5.22582,-5.43335 -5.22582,-5.74957 0,-0.3162 9.69749,-10.26761 21.54999,-22.11423 l 21.55,-21.5393 5.10437,5.059 c 2.80741,2.78246 5.10439,5.42439 5.10439,5.87096 0,0.44657 -9.64285,10.45001 -21.42855,22.22986 l -21.42854,21.41792 z m 43.07651,42.96151 -5.33902,-5.20935 21.43438,-21.44502 c 11.78891,-11.79476 21.79976,-21.44501 22.24633,-21.44501 0.44657,0 3.08849,2.29697 5.87095,5.10438 l 5.05901,5.10438 -21.53931,21.55 c -11.84662,11.85249 -21.73146,21.54999 -21.96631,21.54999 -0.23485,0 -2.82956,-2.34422 -5.76603,-5.20937 z m -43.42528,0.28857 c -2.68238,-2.70643 -4.87705,-5.14633 -4.87705,-5.422 0,-0.27567 19.45946,-19.95272 43.24325,-43.72678 l 43.24325,-43.22555 3.93348,3.7663 c 2.16341,2.07147 4.55863,4.47186 5.3227,5.33421 1.36021,1.53516 0.48565,2.47235 -41.8824,44.88126 -23.7994,23.82235 -43.4594,43.31336 -43.6889,43.31336 -0.2295,0 -2.61195,-2.21436 -5.29433,-4.9208 z M 714.2212,625.24651 V 523.83939 l -6.10892,-2.22719 c -7.11948,-2.59562 -10.08401,-4.28798 -16.93353,-9.66677 -12.24086,-9.61253 -19.4278,-22.41364 -22.50005,-40.07626 -0.51962,-2.98738 -0.61542,-2.7833 -2.02397,4.31174 -3.76882,18.98415 -16.57474,35.34895 -34.42969,43.998 -9.31076,4.5102 -22.36783,6.69875 -32.24913,5.40542 -21.96001,-2.87428 -38.63501,-14.23377 -48.38592,-32.96188 -3.02755,-5.81487 -6.31049,-15.88954 -6.31049,-19.36561 0,-0.97881 -0.35278,-1.77965 -0.78395,-1.77965 -0.43117,0 -0.78395,0.80084 -0.78395,1.77965 0,3.48122 -3.28478,13.55415 -6.31513,19.36561 -7.42404,14.23751 -19.49291,24.77281 -34.23456,29.88446 -3.57324,1.23901 -17.00823,3.81871 -20.01062,3.84231 -0.32338,0.002 -0.58796,45.16143 -0.58796,100.35309 v 100.34847 l 115.82893,-0.19857 115.82894,-0.19858 z m -283.39312,38.61805 c -10.16223,-4.40691 -12.692,-17.54795 -4.80586,-24.96426 l 2.44841,-2.30253 v -17.9674 -17.96739 l -1.98176,-1.55885 c -5.31213,-4.17852 -6.67349,-13.90595 -2.74793,-19.63494 6.23331,-9.09691 19.14353,-9.07342 25.48087,0.0463 4.14193,5.96046 2.94742,14.42747 -2.75181,19.5055 l -2.32033,2.06745 v 17.81115 17.81115 l 2.03366,1.3325 c 2.98626,1.95667 6.09389,9.21494 5.58137,13.03603 -1.34189,10.00452 -12.14135,16.59937 -20.93662,12.78525 z m 36.44818,-38.61805 V 523.83939 l -6.10892,-2.22719 c -21.25489,-7.74912 -35.79313,-26.09459 -39.41983,-49.74303 l -0.60114,-3.91976 -0.70381,3.52778 c -3.85032,19.29928 -10.25284,30.74851 -22.63021,40.46824 -6.84954,5.37881 -9.81407,7.07116 -16.93353,9.66675 l -6.10892,2.22717 -0.20161,100.62319 c -0.11089,55.34275 -0.0327,101.06698 0.17378,101.60941 0.29694,0.78006 10.00754,0.94393 46.45481,0.78395 l 46.07938,-0.20227 z M 306.1014,755.79566 c -11.35603,-5.99528 -11.10182,-22.03729 0.43223,-27.27649 2.75848,-1.253 5.3739,-1.44136 20.22213,-1.45635 l 17.0539,-0.0172 -0.19892,-101.60887 -0.19892,-101.60888 -4.78176,-1.73141 c -15.30439,-5.54153 -28.68144,-17.73813 -35.29215,-32.17781 -3.91789,-8.55779 -5.02349,-14.16064 -5.53407,-28.04485 l -0.48289,-13.1312 h 247.1746 247.1746 l -0.48289,13.1312 c -0.51058,13.88421 -1.61618,19.48706 -5.53407,28.04485 -6.61071,14.43968 -19.98776,26.63628 -35.29215,32.17781 l -4.78175,1.73141 -0.19892,101.60888 -0.19893,101.60887 17.0539,0.0172 c 14.84823,0.015 17.46365,0.20335 20.22213,1.45635 11.53405,5.2392 11.78826,21.28121 0.43223,27.27649 l -3.4551,1.82405 H 544.49555 309.5565 Z"
     inkscape:connector-curvature="0" />
  <path
     id="path3798"
     style="fill:#ff0046;fill-opacity:1;stroke-width:1.69674683"
     d="m 0.29026739,190.35156 v -28.8447 H 43.55731 c 33.41813,0 43.2945,0.48279 43.38767,2.12094 0.0929,1.63413 0.008,48.05439 -0.0988,54.29589 -0.0127,0.69991 -19.49203,1.27256 -43.2889,1.27256 H 0.29019739 Z M 525.46203,244.73168 c -0.32987,-0.51293 -4.05429,-2.80159 -8.27645,-5.08587 l -7.6767,-4.1533 -8.51964,3.99041 c -4.68582,2.1947 -8.2383,4.44545 -7.89437,5.00165 0.34391,0.55619 7.90217,1.04916 16.79612,1.09548 8.89396,0.0462 15.90093,-0.33547 15.57104,-0.84837 z m -54.79289,31.7319 0.46838,-25.87331 16.96747,-9.66927 16.96747,-9.66925 0.84837,-36.00561 c 0.62858,-26.67784 1.39782,-36.18826 2.96931,-36.7106 1.65267,-0.54932 2.12093,7.32036 2.12093,35.64568 v 36.35064 l 17.81584,9.75438 17.81585,9.75439 v 26.14812 -13.95396 h -38.22101 -38.221 z M 411.75139,113.02788 C 402.4923,109.1962 204.60999,51.596591 203.8917,52.524051 c -0.52793,0.68167 -0.67637,10.21093 -0.32983,21.17616 l 0.63004,19.93678 h 11.7312 11.73123 v 10.180479 10.18048 l 92.89688,-0.13404 c 51.09329,-0.0736 92.13338,-0.44993 91.20017,-0.83611 z M 129.24302,103.81747 V 93.636991 h 11.87723 11.87723 v -17.75468 -17.75468 l -43.69124,26.41851 c -24.03018,14.53018 -44.41658,27.100989 -45.30313,27.935149 -0.95043,0.89427 12.10493,1.51666 31.81399,1.51666 h 33.42592 z m -50.9024,659.06038 v -28.12209 l 29.60943,-14.29658 c 23.8109,-11.49684 31.12108,-14.29658 37.32844,-14.29658 h 7.71899 V 428.7445 151.32638 H 76.64387 0.29026739 l -0.20107,-11.45304 c -0.2782,-15.84984 -0.24679,-15.97319 5.40162301,-21.20933 4.7191396,-4.3747 5.9908896,-4.66606 20.3667896,-4.66606 H 41.19094 L 90.73138,84.004771 c 27.24728,-16.49627 52.39744,-31.5761 55.88928,-33.51075 5.94476,-3.2937 6.34969,-4.03047 6.3628,-11.57711 l 0.0149,-8.05955 h 25.4512 25.4512 v 4.77802 4.77802 l 69.14243,20.64585 c 38.02834,11.3552 93.55319,27.91175 123.38855,36.79227 l 54.2461,16.146429 h 51.50689 51.50693 l 4.9597,4.95972 c 4.66306,4.66306 4.95974,5.77948 4.95974,18.66422 v 13.70449 H 383.75587 203.90071 l -0.1298,274.44882 c -0.0715,150.94683 -0.38561,275.78498 -0.69823,277.4181 -0.47696,2.49148 0.73061,2.9693 7.50418,2.9693 6.63865,0 13.31795,2.52383 37.60247,14.20839 l 29.52986,14.20839 -0.50334,28.21028 -0.50331,28.21033 H 177.52198 78.34145 Z"
     inkscape:connector-curvature="0" />
</svg>
