<?xml version="1.0" encoding="UTF-8" standalone="no"?>
<!-- Created with Inkscape (http://www.inkscape.org/) -->

<svg
   xmlns:dc="http://purl.org/dc/elements/1.1/"
   xmlns:cc="http://creativecommons.org/ns#"
   xmlns:rdf="http://www.w3.org/1999/02/22-rdf-syntax-ns#"
   xmlns:svg="http://www.w3.org/2000/svg"
   xmlns="http://www.w3.org/2000/svg"
   xmlns:sodipodi="http://sodipodi.sourceforge.net/DTD/sodipodi-0.dtd"
   xmlns:inkscape="http://www.inkscape.org/namespaces/inkscape"
   width="163.96072mm"
   height="163.93845mm"
   viewBox="0 0 163.96073 163.93845"
   version="1.1"
   id="svg4002"
   inkscape:version="0.92.3 (2405546, 2018-03-11)"
   sodipodi:docname="explorer_shop.svg">
  <defs
     id="defs3996" />
  <sodipodi:namedview
     id="base"
     pagecolor="#ffffff"
     bordercolor="#666666"
     borderopacity="1.0"
     inkscape:pageopacity="0.0"
     inkscape:pageshadow="2"
     inkscape:zoom="0.49497475"
     inkscape:cx="639.88909"
     inkscape:cy="-78.073408"
     inkscape:document-units="mm"
     inkscape:current-layer="layer1"
     showgrid="false"
     inkscape:window-width="1920"
     inkscape:window-height="1001"
     inkscape:window-x="-9"
     inkscape:window-y="-9"
     inkscape:window-maximized="1" />
  <metadata
     id="metadata3999">
    <rdf:RDF>
      <cc:Work
         rdf:about="">
        <dc:format>image/svg+xml</dc:format>
        <dc:type
           rdf:resource="http://purl.org/dc/dcmitype/StillImage" />
        <dc:title />
      </cc:Work>
    </rdf:RDF>
  </metadata>
  <g
     inkscape:label="Calque 1"
     inkscape:groupmode="layer"
     id="layer1"
     transform="translate(-11.677613,-69.548024)">
    <path
       style="fill:#ff5185;fill-opacity:1;stroke-width:0.21769416"
       d="m 15.703289,206.50946 c -3.153432,-1.66482 -3.082845,-6.1195 0.120027,-7.57436 0.765993,-0.34794 1.49227,-0.40025 5.61544,-0.40441 l 4.735665,-0.005 -0.05521,-28.21557 -0.05521,-28.21558 -1.327837,-0.48079 c -4.249846,-1.53882 -7.964489,-4.92566 -9.800204,-8.93538 -1.087955,-2.37641 -1.394967,-3.93225 -1.536749,-7.78773 l -0.134097,-3.64638 h 68.637448 68.637448 l -0.13409,3.64638 c -0.14179,3.85548 -0.4488,5.41132 -1.53675,7.78773 -1.83571,4.00972 -5.55037,7.39656 -9.80021,8.93538 l -1.32784,0.48079 -0.0552,28.21558 -0.0552,28.21557 4.73567,0.005 c 4.12318,0.004 4.84945,0.0564 5.61544,0.40441 3.20287,1.45486 3.27346,5.90954 0.12002,7.57436 l -0.95943,0.50651 H 81.902623 16.662849 Z M 60.459627,170.25751 V 142.09797 L 58.76325,141.4795 c -5.902228,-2.15183 -9.939327,-7.24615 -10.94642,-13.81305 l -0.166925,-1.08846 -0.195436,0.97962 c -1.069195,5.35917 -2.847094,8.5385 -6.284147,11.23755 -1.902031,1.49363 -2.725248,1.96358 -4.702235,2.68434 l -1.696376,0.61846 -0.05595,27.94186 c -0.03077,15.36802 -0.009,28.06509 0.04829,28.21572 0.08246,0.21661 2.778976,0.26212 12.899949,0.21769 l 12.795694,-0.0563 z M 50.3384,180.98129 c -2.821926,-1.22375 -3.524417,-4.87286 -1.334527,-6.93228 l 0.679889,-0.63938 v -4.98934 -4.98933 l -0.550308,-0.43287 c -1.475116,-1.16033 -1.85315,-3.86152 -0.763065,-5.45239 1.73091,-2.5261 5.315923,-2.51957 7.075729,0.0129 1.150165,1.65515 0.818461,4.00634 -0.764142,5.41645 l -0.644327,0.5741 v 4.94596 4.94594 l 0.564723,0.37001 c 0.829248,0.54335 1.692197,2.55888 1.549882,3.61995 -0.37263,2.77814 -3.371511,4.60944 -5.813854,3.55032 z m 78.6949,-10.72378 v -28.15954 l -1.69638,-0.61847 c -1.97699,-0.72077 -2.80021,-1.19072 -4.70223,-2.68434 -3.39915,-2.66929 -5.39487,-6.224 -6.24799,-11.12871 -0.1443,-0.82955 -0.1709,-0.77288 -0.56204,1.19732 -1.04656,5.27168 -4.60261,9.81599 -9.56071,12.21773 -2.5855,1.25243 -6.2113,1.86016 -8.955212,1.50102 -6.098033,-0.79815 -10.728481,-3.95255 -13.436196,-9.15312 -0.840709,-1.61472 -1.752343,-4.41235 -1.752343,-5.3776 0,-0.2718 -0.09796,-0.49419 -0.217691,-0.49419 -0.119731,0 -0.2177,0.22239 -0.2177,0.49419 0,0.96669 -0.912143,3.76383 -1.753634,5.3776 -2.061569,3.95359 -5.412945,6.87911 -9.506529,8.29855 -0.992249,0.34406 -4.722985,1.06042 -5.556709,1.06697 -0.0898,6.6e-4 -0.163273,12.54079 -0.163273,27.86686 v 27.86557 l 32.164315,-0.0551 32.164322,-0.0552 z m -42.075699,6.00331 c -0.744864,-0.75154 -1.354298,-1.42907 -1.354298,-1.50562 0,-0.0766 5.403664,-5.54064 12.008136,-12.14241 l 12.008141,-12.00322 1.09229,1.04586 c 0.60075,0.57522 1.26588,1.24178 1.47805,1.48125 0.37771,0.42629 0.13485,0.68654 -11.63025,12.46298 -6.608817,6.61519 -12.068167,12.02761 -12.131891,12.02761 -0.06376,0 -0.725307,-0.61489 -1.470178,-1.36645 z m 12.058686,-0.0801 -1.482584,-1.44658 5.952087,-5.95503 c 3.27363,-3.27526 6.05352,-5.95503 6.17754,-5.95503 0.124,0 0.85764,0.63785 1.63029,1.41744 l 1.40483,1.41742 -5.98122,5.98417 c -3.28966,3.29131 -6.03457,5.98418 -6.09978,5.98418 -0.0652,0 -0.785745,-0.65096 -1.601163,-1.44657 z M 87.054459,164.25078 c -0.798139,-0.79031 -1.451156,-1.50877 -1.451156,-1.59657 0,-0.0878 2.692881,-2.8512 5.984178,-6.14087 l 5.984177,-5.98121 1.417419,1.40483 c 0.779591,0.77266 1.417433,1.50629 1.417433,1.63029 0,0.12401 -2.67771,2.90184 -5.950452,6.17298 l -5.950452,5.9475 z m -73.40205,-47.26952 c -0.121369,-0.0509 3.612519,-7.75776 8.297525,-17.126266 L 30.468121,82.821418 H 81.902508 133.3369 l 8.51711,17.031428 c 6.06268,12.123424 8.43302,17.063744 8.22529,17.143454 -0.34855,0.13375 -136.108163,0.11879 -136.426891,-0.0151 z m 26.798795,-6.85532 c 0.549717,-0.45623 9.232558,-18.05796 9.232558,-18.716111 0,-1.846346 -1.91439,-2.840487 -3.32824,-1.72835 -0.357672,0.28135 -2.167387,3.661877 -5.058219,9.448736 -3.816824,7.640525 -4.479698,9.109035 -4.35926,9.657395 0.140672,0.64046 0.795407,1.39645 1.425625,1.64609 0.459729,0.1821 1.721406,-0.004 2.087536,-0.30776 z m 16.943514,-0.01 c 0.788027,-0.61988 9.486892,-17.977245 9.486892,-18.929778 0,-0.905496 -1.032014,-1.943533 -1.93226,-1.943533 -1.553255,0 -1.518542,-0.05257 -6.358876,9.626325 -2.50406,5.007206 -4.549354,9.322486 -4.545108,9.589516 0.0269,1.69484 2.037164,2.68963 3.349352,1.65746 z m 25.441185,0.22452 c 1.230527,-0.56068 1.243543,-0.66973 1.243543,-10.420798 0,-9.548679 -0.03579,-9.895951 -1.076411,-10.452891 -0.537786,-0.287809 -1.663269,-0.287809 -2.201063,0 -1.040645,0.55694 -1.076412,0.904212 -1.076412,10.452891 0,7.976768 0.03983,9.024508 0.363596,9.572658 0.588444,0.99616 1.681271,1.33359 2.746747,0.84812 z m 25.811417,-0.074 c 0.62933,-0.32543 1.12005,-1.15157 1.12005,-1.88564 0,-0.56035 -0.13094,-0.81385 -5.27522,-10.21275 -2.39195,-4.37021 -4.589092,-8.16625 -4.882546,-8.435646 -1.476587,-1.355572 -4.086622,0.319133 -3.386822,2.173122 0.578975,1.533878 9.502538,17.528564 10.082778,18.072464 0.70947,0.66505 1.43959,0.75499 2.34176,0.28845 z m 17.71922,-0.55644 c 0.32926,-0.36524 0.59867,-0.90326 0.59867,-1.1956 0,-0.83877 -8.7819,-18.256501 -9.48278,-18.807814 -1.31867,-1.037272 -3.36118,-0.104732 -3.36118,1.53461 0,1.076494 8.84953,18.680804 9.5852,19.067764 0.81584,0.42912 1.96696,0.16993 2.66009,-0.59896 z M 33.030162,78.049312 c -0.819596,-0.366903 -1.968841,-1.566254 -2.272439,-2.371518 -0.652201,-1.729906 0.08505,-3.927192 1.692518,-5.044307 l 0.943936,-0.655995 48.037256,-0.06385 c 33.652397,-0.04476 48.278787,0.0057 48.843807,0.169074 2.30245,0.664963 3.6494,3.518376 2.70251,5.7251 -0.36631,0.853709 -1.54916,2.006508 -2.38034,2.319873 -0.42566,0.160483 -15.31827,0.228445 -48.763498,0.22252 -39.815525,-0.0074 -48.263726,-0.05915 -48.80375,-0.300882 z"
       id="path4028"
       inkscape:connector-curvature="0" />
    <path
       id="path4015"
       style="fill:#ff5185;fill-opacity:1;stroke:#ffffff;stroke-width:3.98443818;stroke-miterlimit:4;stroke-dasharray:none"
       d="m 102.2845,102.94655 c -0.87584,5.2e-4 -1.68617,0.0261 -2.388782,0.08 -8.739277,0.67013 -16.633915,3.23098 -23.856394,7.73848 -2.877484,1.7958 -7.924464,6.05236 -10.138153,8.55056 -5.800079,6.54554 -9.514183,13.66241 -11.581662,22.19261 -0.972487,4.01237 -1.474385,10.077 -1.173721,14.18497 0.714303,9.75955 3.676078,18.06615 9.234215,25.89882 2.298143,3.23861 6.72279,7.8462 9.607883,10.00504 0.475467,0.3558 1.296451,0.97363 1.824416,1.37298 3.488781,2.63893 9.908496,5.77337 14.738978,7.19656 6.515184,1.91962 14.30261,2.55917 20.96265,1.72109 5.66757,-0.71318 11.75076,-2.61452 16.74068,-5.23299 0.97706,-0.5127 1.8504,-0.87763 1.94121,-0.81106 0.0908,0.0667 0.20291,0.41923 0.24911,0.7839 0.27139,2.14383 0.51225,2.45825 14.70177,19.16725 7.4669,8.79271 14.07052,16.422 14.67438,16.95399 1.09621,0.96575 2.63831,1.80925 4.14343,2.26658 1.19593,0.36332 3.90094,0.38668 5.24481,0.0451 1.7043,-0.43319 2.93759,-1.06983 4.32121,-2.23069 2.2743,-1.90813 3.39282,-4.06818 3.65555,-7.05917 0.18968,-2.15944 -0.13291,-3.8826 -1.06312,-5.68107 -0.30705,-0.59365 -6.49521,-8.01633 -14.50693,-17.40105 -14.61948,-17.12496 -14.85135,-17.37122 -16.94688,-17.99525 -0.35486,-0.10567 -0.68683,-0.27386 -0.73804,-0.37375 -0.0512,-0.0999 0.45642,-0.89395 1.12825,-1.76466 3.39267,-4.39702 6.40472,-10.22889 7.95712,-15.40774 1.05467,-3.51847 1.58643,-6.3911 1.92158,-10.3752 0.70245,-8.34998 -0.36083,-15.37641 -3.50514,-23.16005 -2.22905,-5.51788 -6.46223,-11.83364 -10.75525,-16.04705 -6.90628,-6.77821 -14.91254,-11.14453 -24.70451,-13.47234 -2.86381,-0.68079 -7.89332,-1.14854 -11.68866,-1.14585 z m -0.29665,12.60231 c 2.7907,-0.0183 7.23147,0.3933 9.5133,0.91719 11.05978,2.53929 20.18892,9.72773 25.26166,19.8922 4.30251,8.62113 4.92326,19.07221 1.69107,28.46787 -4.76987,13.86555 -17.76264,23.75319 -32.60531,24.81346 l 5.3e-4,5.2e-4 c -3.70094,0.26441 -7.280939,-0.007 -10.957842,-0.82901 -16.296662,-3.64568 -28.082749,-17.41457 -29.099125,-33.99412 -0.16011,-2.60635 0.284124,-7.90251 0.87758,-10.46133 1.846732,-7.96266 6.024572,-14.75822 12.319695,-20.03984 6.27734,-5.26671 13.602632,-8.18535 21.914662,-8.73155 0.3202,-0.0211 0.68512,-0.0327 1.0838,-0.0354 z"
       inkscape:connector-curvature="0" />
  </g>
</svg>
