<?xml version="1.0" encoding="UTF-8" standalone="no"?>
<!-- Created with Inkscape (http://www.inkscape.org/) -->

<svg
   xmlns:osb="http://www.openswatchbook.org/uri/2009/osb"
   xmlns:dc="http://purl.org/dc/elements/1.1/"
   xmlns:cc="http://creativecommons.org/ns#"
   xmlns:rdf="http://www.w3.org/1999/02/22-rdf-syntax-ns#"
   xmlns:svg="http://www.w3.org/2000/svg"
   xmlns="http://www.w3.org/2000/svg"
   xmlns:sodipodi="http://sodipodi.sourceforge.net/DTD/sodipodi-0.dtd"
   xmlns:inkscape="http://www.inkscape.org/namespaces/inkscape"
   width="198.34856mm"
   height="135.71672mm"
   viewBox="0 0 198.34856 135.71672"
   version="1.1"
   id="svg8"
   inkscape:version="0.92.4 (5da689c313, 2019-01-14)"
   sodipodi:docname="Mabel_logo2B&amp;W.svg">
  <defs
     id="defs2">
    <linearGradient
       id="linearGradient2394"
       osb:paint="solid">
      <stop
         style="stop-color:#aa0000;stop-opacity:1;"
         offset="0"
         id="stop2392" />
    </linearGradient>
    <linearGradient
       id="linearGradient940"
       osb:paint="gradient">
      <stop
         style="stop-color:#aa0000;stop-opacity:1;"
         offset="0"
         id="stop936" />
      <stop
         style="stop-color:#aa0000;stop-opacity:0;"
         offset="1"
         id="stop938" />
    </linearGradient>
  </defs>
  <sodipodi:namedview
     id="base"
     pagecolor="#ffffff"
     bordercolor="#666666"
     borderopacity="1.0"
     inkscape:pageopacity="0.0"
     inkscape:pageshadow="2"
     inkscape:zoom="0.45254835"
     inkscape:cx="-201.63322"
     inkscape:cy="507.32112"
     inkscape:document-units="mm"
     inkscape:current-layer="layer1"
     showgrid="false"
     inkscape:window-width="1920"
     inkscape:window-height="1001"
     inkscape:window-x="-9"
     inkscape:window-y="-9"
     inkscape:window-maximized="1"
     showguides="false" />
  <metadata
     id="metadata5">
    <rdf:RDF>
      <cc:Work
         rdf:about="">
        <dc:format>image/svg+xml</dc:format>
        <dc:type
           rdf:resource="http://purl.org/dc/dcmitype/StillImage" />
        <dc:title></dc:title>
      </cc:Work>
    </rdf:RDF>
  </metadata>
  <g
     inkscape:label="Calque 1"
     inkscape:groupmode="layer"
     id="layer1"
     transform="translate(4.5065041,-129.07961)">
    <rect
       style="fill:#ffffff;fill-opacity:1;fill-rule:nonzero;stroke:#ff0046;stroke-width:13.3888855;stroke-linecap:round;stroke-linejoin:round;stroke-miterlimit:0;stroke-dasharray:none;stroke-opacity:1;paint-order:markers stroke fill"
       id="rect899-6"
       width="184.95967"
       height="122.32784"
       x="2.1879387"
       y="135.77405" />
    <path
       style="fill:#ff0046;fill-opacity:1;stroke:none;stroke-width:0.17674167"
       d="m 44.724376,182.15549 v 8.84686 h 0.0014 c 0.0082,4.32131 2.316709,8.31135 6.058926,10.47229 3.749802,2.16498 8.369773,2.16498 12.119576,0 3.742085,-2.16102 6.050451,-6.15105 6.058581,-10.47229 h 7.07e-4 v -0.0166 l 3.54e-4,-0.007 h -3.54e-4 v -8.82339 z"
       id="path819"
       inkscape:connector-curvature="0"
       sodipodi:nodetypes="cccccccccccc" />
    <path
       style="fill:#ff0046;fill-opacity:1;stroke:none;stroke-width:0.17674167"
       d="m 120.61542,182.1086 v 8.84686 h 0.001 c 0.008,4.32132 2.31671,8.31135 6.05892,10.47229 3.7498,2.16499 8.36978,2.16499 12.11958,0 3.74209,-2.16102 6.05045,-6.15105 6.05858,-10.47229 h 6.6e-4 v -0.0166 l 3.6e-4,-0.007 h -3.6e-4 v -8.82341 z"
       id="path819-4"
       inkscape:connector-curvature="0"
       sodipodi:nodetypes="cccccccccccc" />
    <path
       style="fill:#ff0046;fill-opacity:1;stroke:none;stroke-width:0.17674167"
       d="m 19.426896,182.1555 v 8.84685 h 0.0014 c 0.0082,4.32132 2.316708,8.31136 6.058926,10.47229 3.749802,2.16499 8.369772,2.16499 12.11957,0 3.742091,-2.16102 6.050452,-6.15104 6.058582,-10.47229 h 6.68e-4 v -0.0166 l 3.54e-4,-0.007 h -3.54e-4 v -8.8234 z"
       id="path819-4-7"
       inkscape:connector-curvature="0"
       sodipodi:nodetypes="cccccccccccc" />
    <path
       style="fill:#ff0046;fill-opacity:1;stroke:none;stroke-width:0.17674167"
       d="m 95.317637,182.13205 v 8.84685 h 10e-4 c 0.008,4.32132 2.31671,8.31136 6.058923,10.47229 3.74982,2.16499 8.36979,2.16499 12.11959,0 3.74208,-2.16102 6.05044,-6.15104 6.05857,-10.47229 h 6.7e-4 v -0.0166 l 3.5e-4,-0.007 h -3.5e-4 v -8.82341 z"
       id="path819-4-7-7"
       inkscape:connector-curvature="0"
       sodipodi:nodetypes="cccccccccccc" />
    <path
       style="fill:#ff0046;fill-opacity:1;stroke:none;stroke-width:0.17674167"
       d="m 70.019805,182.1555 v 8.84685 h 0.0014 c 0.0082,4.32132 2.316709,8.31136 6.058925,10.47229 3.749805,2.16499 8.369773,2.16499 12.119573,0 3.74209,-2.16102 6.05045,-6.15104 6.05858,-10.47229 h 6.7e-4 v -0.0166 l 3.5e-4,-0.007 h -3.5e-4 v -8.8234 z"
       id="path819-4-7-7-5"
       inkscape:connector-curvature="0"
       sodipodi:nodetypes="cccccccccccc" />
    <path
       style="fill:#ff0046;fill-opacity:1;stroke:none;stroke-width:0.17674167"
       d="m 145.91084,182.10861 v 8.84685 h 0.001 c 0.008,4.32132 2.31671,8.31136 6.05892,10.47229 3.74981,2.16499 8.36978,2.16499 12.11958,0 3.74208,-2.16102 6.05044,-6.15104 6.05857,-10.47229 h 6.7e-4 v -0.0166 l 3.4e-4,-0.007 h -3.4e-4 v -8.82341 z"
       id="path819-4-7-7-0"
       inkscape:connector-curvature="0"
       sodipodi:nodetypes="cccccccccccc" />
    <path
       style="fill:none;stroke:#000000;stroke-width:0.26458332px;stroke-linecap:butt;stroke-linejoin:miter;stroke-opacity:1"
       d="m 19.426896,172.80107 v 0 c 0,0 0,0 0,0 z"
       id="path932"
       inkscape:connector-curvature="0" />
    <path
       style="fill:#ff0046;fill-opacity:1;stroke:none;stroke-width:3.07764578;stroke-linecap:butt;stroke-linejoin:round;stroke-miterlimit:4;stroke-dasharray:none;stroke-opacity:1"
       d="m 19.289427,177.24176 150.756693,-0.0705 -34.89509,-27.29944 -78.111977,-0.0394 z"
       id="path934"
       inkscape:connector-curvature="0"
       sodipodi:nodetypes="ccccc" />
    <path
       style="font-style:normal;font-variant:normal;font-weight:bold;font-stretch:normal;font-size:52.23161697px;line-height:1.25;font-family:Calibri;-inkscape-font-specification:'Calibri Bold';letter-spacing:0px;word-spacing:0px;fill:#ff0046;fill-opacity:1;stroke:#f9f9f9;stroke-width:0;stroke-miterlimit:4;stroke-dasharray:none;stroke-opacity:1"
       d="m 292.48828,457.20312 c -3.27733,0 -5.91219,0.0648 -7.9043,0.19336 -1.9921,0.0643 -3.5679,0.29022 -4.7246,0.67579 -1.09245,0.3213 -1.89412,0.83414 -2.40821,1.54101 -0.51409,0.64261 -0.96404,1.51107 -1.34961,2.60352 L 237.64062,572.875 c -0.77113,2.24915 -1.25252,4.047 -1.44531,5.39648 -0.19278,1.34949 0.0312,2.41051 0.67383,3.18164 0.64261,0.70688 1.79991,1.15683 3.4707,1.34961 1.6708,0.19279 3.98344,0.28907 6.93946,0.28907 2.76323,0 4.97959,-0.0648 6.65039,-0.19336 1.73505,-0.12853 3.05346,-0.35252 3.95312,-0.67383 0.96392,-0.38557 1.63787,-0.86696 2.02344,-1.44531 0.44983,-0.64262 0.8035,-1.4148 1.06055,-2.31446 l 7.90429,-24.38672 h 46.84766 l 8.38477,25.0625 c 0.25704,0.8354 0.57927,1.50935 0.96484,2.02344 0.38557,0.51409 1.05952,0.9326 2.02344,1.25391 0.96392,0.25704 2.34521,0.41621 4.14453,0.48047 1.86358,0.12852 4.43556,0.19336 7.71289,0.19336 3.1488,0 5.62256,-0.0963 7.42187,-0.28907 1.79932,-0.12852 3.05094,-0.51363 3.75782,-1.15625 0.70687,-0.70687 0.96426,-1.73449 0.77148,-3.08398 -0.19278,-1.34949 -0.67418,-3.18269 -1.44531,-5.49609 L 310.89844,462.50586 c -0.38557,-1.22097 -0.86696,-2.1857 -1.44532,-2.89258 -0.51409,-0.70687 -1.41399,-1.21971 -2.69921,-1.54101 -1.22097,-0.38557 -2.95593,-0.61152 -5.20508,-0.67579 -2.24915,-0.12852 -5.26913,-0.19336 -9.06055,-0.19336 z m 294.0918,0 c -2.44193,0 -4.49913,0.0982 -6.16992,0.29102 -1.60654,0.19278 -2.89155,0.44823 -3.85547,0.76953 -0.96392,0.32131 -1.67127,0.73982 -2.1211,1.25391 -0.38556,0.51409 -0.57812,1.09176 -0.57812,1.73437 v 113.26172 c 0,2.8275 0.70734,4.88274 2.12109,6.16797 1.47801,1.22097 3.27782,1.83203 5.39844,1.83203 h 57.16016 c 0.64261,0 1.18884,-0.19256 1.63867,-0.57812 0.51409,-0.38557 0.93064,-0.99664 1.25195,-1.83203 0.32131,-0.89966 0.54726,-1.99212 0.67578,-3.27735 0.19279,-1.34949 0.28906,-2.98817 0.28906,-4.91601 10e-6,-1.92784 -0.0963,-3.53314 -0.28906,-4.81836 -0.12852,-1.34949 -0.35447,-2.41051 -0.67578,-3.18164 -0.32131,-0.8354 -0.73786,-1.41307 -1.25195,-1.73438 -0.44983,-0.38557 -0.99606,-0.58008 -1.63867,-0.58008 H 599.30273 V 461.25195 c 0,-0.64261 -0.22399,-1.22028 -0.67382,-1.73437 -0.38557,-0.51409 -1.06147,-0.9326 -2.02539,-1.25391 -0.96392,-0.3213 -2.24894,-0.57675 -3.85547,-0.76953 -1.60654,-0.19278 -3.66178,-0.29102 -6.16797,-0.29102 z M 84.087891,457.7832 c -2.891761,0 -5.204397,0.86651 -6.939453,2.60157 -1.735057,1.73505 -2.603516,4.2422 -2.603516,7.51953 v 111.13867 c 0,0.64261 0.161115,1.22224 0.482422,1.73633 0.385568,0.51409 1.028075,0.93064 1.927734,1.25195 0.96392,0.32131 2.217494,0.5787 3.759766,0.77148 1.542272,0.19279 3.469795,0.28907 5.783203,0.28907 2.377669,0 4.305192,-0.0963 5.783203,-0.28907 1.542272,-0.19278 2.795846,-0.45017 3.759766,-0.77148 0.96392,-0.32131 1.606427,-0.73786 1.927734,-1.25195 0.385568,-0.51409 0.578125,-1.09372 0.578125,-1.73633 v -101.5 h 0.193359 l 34.892576,101.4043 c 0.19279,0.70687 0.57985,1.31794 1.15821,1.83203 0.57835,0.51409 1.34858,0.96404 2.3125,1.34961 1.02818,0.3213 2.31319,0.5453 3.85546,0.67382 1.54228,0.19279 3.40692,0.28907 5.5918,0.28907 2.18489,0 4.04757,-0.0648 5.58984,-0.19336 1.54228,-0.0643 2.79585,-0.25682 3.75977,-0.57813 1.02818,-0.3213 1.8318,-0.73786 2.41016,-1.25195 0.57835,-0.57835 0.9949,-1.2857 1.25195,-2.12109 l 36.14648,-101.4043 h 0.19336 v 101.5 c 0,0.64261 0.19256,1.22224 0.57813,1.73633 0.38557,0.51409 1.02807,0.93064 1.92773,1.25195 0.89966,0.32131 2.12179,0.5787 3.66407,0.77148 1.54227,0.19279 3.46979,0.28907 5.7832,0.28907 2.37767,0 4.33663,-0.0963 5.87891,-0.28907 1.54227,-0.19278 2.7644,-0.45017 3.66406,-0.77148 0.96392,-0.32131 1.60643,-0.73786 1.92773,-1.25195 0.38557,-0.51409 0.57813,-1.09372 0.57813,-1.73633 V 467.9043 c 0,-1.60654 -0.22595,-3.02123 -0.67578,-4.24219 -0.38557,-1.28523 -0.99469,-2.34624 -1.83008,-3.18164 -0.77114,-0.89966 -1.80071,-1.57361 -3.08594,-2.02344 -1.22097,-0.44983 -2.69854,-0.67383 -4.43359,-0.67383 h -17.06055 c -2.37767,0 -4.46631,0.25544 -6.26563,0.76953 -1.79931,0.44983 -3.37316,1.25346 -4.72265,2.41016 -1.28523,1.1567 -2.44252,2.66767 -3.4707,4.53125 -0.96393,1.86358 -1.86383,4.14477 -2.69922,6.84375 l -27.95313,74.125 h -0.38672 l -26.98828,-74.31836 c -0.77113,-2.69898 -1.67104,-4.94873 -2.69922,-6.74805 -1.02818,-1.86357 -2.31319,-3.34115 -3.85547,-4.43359 -1.54227,-1.1567 -3.37351,-1.96033 -5.49414,-2.41016 -2.12062,-0.51409 -4.65921,-0.76953 -7.61523,-0.76953 z m 400.894529,0 c -2.12062,0 -3.92042,0.64251 -5.39844,1.92774 -1.41375,1.22096 -2.12109,3.24476 -2.12109,6.07226 v 108.73047 c 0,2.8275 0.70734,4.88274 2.12109,6.16797 1.47802,1.22097 3.27782,1.83203 5.39844,1.83203 h 62.6543 c 0.57835,0 1.09314,-0.16111 1.54297,-0.48242 0.51409,-0.38557 0.93064,-0.96324 1.25195,-1.73437 0.32131,-0.77114 0.54726,-1.76732 0.67578,-2.98829 0.19279,-1.28522 0.28906,-2.85907 0.28906,-4.72265 0,-1.86358 -0.0963,-3.40599 -0.28906,-4.62696 -0.12852,-1.28522 -0.35447,-2.3148 -0.67578,-3.08593 -0.32131,-0.77114 -0.73786,-1.31737 -1.25195,-1.63867 -0.44983,-0.38557 -0.96462,-0.57813 -1.54297,-0.57813 h -44.91797 v -35.18164 h 37.68945 c 0.57836,0 1.09119,-0.16112 1.54102,-0.48242 0.51409,-0.32131 0.9326,-0.8361 1.2539,-1.54297 0.32131,-0.77114 0.54531,-1.76732 0.67383,-2.98828 0.19279,-1.22097 0.28907,-2.76338 0.28907,-4.62696 0,-1.79931 -0.0963,-3.30833 -0.28907,-4.52929 -0.12852,-1.28523 -0.35252,-2.28141 -0.67383,-2.98828 -0.3213,-0.77114 -0.73981,-1.31737 -1.2539,-1.63868 -0.44983,-0.38556 -0.96266,-0.57812 -1.54102,-0.57812 h -37.68945 v -30.46094 h 44.5332 c 0.57836,0 1.09119,-0.16111 1.54102,-0.48242 0.44983,-0.38557 0.8369,-0.96324 1.1582,-1.73437 0.32131,-0.77114 0.54531,-1.76732 0.67383,-2.98829 0.19278,-1.28522 0.28906,-2.82763 0.28906,-4.62695 0,-1.92784 -0.0963,-3.50169 -0.28906,-4.72266 -0.12852,-1.28522 -0.35252,-2.31284 -0.67383,-3.08398 -0.3213,-0.8354 -0.70837,-1.41502 -1.1582,-1.73633 -0.44983,-0.3213 -0.96266,-0.48047 -1.54102,-0.48047 z m -192.88086,23.8086 h 0.0957 l 17.64062,53.01562 h -35.375 z"
       id="text2400"
       inkscape:connector-curvature="0"
       transform="matrix(0.26458333,0,0,0.26458333,0,87)" />
    <path
       style="fill:#ff0046;fill-opacity:1;stroke:none;stroke-width:0.11808179"
       d="m 104.44347,224.08641 h 7.97768 v -6.7e-4 c 2.88709,-0.005 5.55286,-1.5478 6.99658,-4.04799 1.44644,-2.50527 1.44644,-5.59189 0,-8.09715 -1.44379,-2.50009 -4.10953,-4.04231 -6.99658,-4.04775 v -5.3e-4 h -0.0111 l -0.004,-1.8e-4 v 1.8e-4 h -7.96202 z"
       id="path819-4-7-7-2"
       inkscape:connector-curvature="0"
       sodipodi:nodetypes="cccccccccccc" />
    <path
       style="fill:#ff0046;fill-opacity:1;stroke:none;stroke-width:0.11808179"
       d="m 104.45914,240.98799 h 7.97767 v -6.7e-4 c 2.8871,-0.005 5.55286,-1.5478 6.99659,-4.04799 1.44644,-2.50526 1.44644,-5.59188 0,-8.09714 -1.44378,-2.5001 -4.10953,-4.04232 -6.99659,-4.04776 v -4.4e-4 h -0.0111 l -0.004,-2.3e-4 v 2.3e-4 h -7.96201 z"
       id="path819-4-7-7-5-5"
       inkscape:connector-curvature="0"
       sodipodi:nodetypes="cccccccccccc" />
    <path
       style="fill:#ff0046;fill-opacity:1;stroke:none;stroke-width:0.71123797;stroke-linecap:butt;stroke-linejoin:round;stroke-miterlimit:4;stroke-dasharray:none;stroke-opacity:1"
       d="m 102.87166,240.98799 -0.0172,-33.16441 -2.3888,2.0907 -0.009,29.1274 z"
       id="path934-0"
       inkscape:connector-curvature="0"
       sodipodi:nodetypes="ccccc" />
  </g>
</svg>
