<?xml version="1.0" encoding="UTF-8" standalone="no"?>
<!-- Created with Inkscape (http://www.inkscape.org/) -->

<svg
   xmlns:dc="http://purl.org/dc/elements/1.1/"
   xmlns:cc="http://creativecommons.org/ns#"
   xmlns:rdf="http://www.w3.org/1999/02/22-rdf-syntax-ns#"
   xmlns:svg="http://www.w3.org/2000/svg"
   xmlns="http://www.w3.org/2000/svg"
   xmlns:sodipodi="http://sodipodi.sourceforge.net/DTD/sodipodi-0.dtd"
   xmlns:inkscape="http://www.inkscape.org/namespaces/inkscape"
   version="1.1"
   id="svg2"
   width="945.59546"
   height="923.84821"
   viewBox="0 0 945.59546 923.8482"
   sodipodi:docname="modifytext.svg"
   inkscape:version="0.92.4 (5da689c313, 2019-01-14)">
  <metadata
     id="metadata8">
    <rdf:RDF>
      <cc:Work
         rdf:about="">
        <dc:format>image/svg+xml</dc:format>
        <dc:type
           rdf:resource="http://purl.org/dc/dcmitype/StillImage" />
        <dc:title></dc:title>
      </cc:Work>
    </rdf:RDF>
  </metadata>
  <defs
     id="defs6" />
  <sodipodi:namedview
     pagecolor="#ffffff"
     bordercolor="#666666"
     borderopacity="1"
     objecttolerance="10"
     gridtolerance="10"
     guidetolerance="10"
     inkscape:pageopacity="0"
     inkscape:pageshadow="2"
     inkscape:window-width="1920"
     inkscape:window-height="1001"
     id="namedview4"
     showgrid="false"
     inkscape:zoom="0.51304348"
     inkscape:cx="67.710926"
     inkscape:cy="437.58191"
     inkscape:window-x="-9"
     inkscape:window-y="-9"
     inkscape:window-maximized="1"
     inkscape:current-layer="svg2" />
  <path
     style="fill:#000000;fill-opacity:1;stroke:#000000;stroke-width:2.98399997;stroke-miterlimit:4;stroke-dasharray:none;stroke-opacity:1"
     d="M 833.55002,106.31089 777.22728,49.981801 795.68723,31.540975 c 10.153,-10.142436 18.89995,-18.440816 19.43763,-18.440816 0.53767,0 26.10278,25.128006 56.81128,55.840064 l 55.83359,55.840047 -18.94854,18.92985 -18.94855,18.92984 z"
     id="path4545"
     inkscape:connector-curvature="0" />
  <path
     id="path4541"
     style="fill:#000000;fill-opacity:1;stroke:#000000;stroke-width:4.08400011;stroke-miterlimit:4;stroke-dasharray:none;stroke-opacity:1"
     d="m 236.33111,702.04395 c 0.24565,-0.94695 6.56243,-32.55899 14.03745,-70.24903 L 263.9594,563.26766 511.24981,315.97869 758.54024,68.689722 l 56.32518,56.325158 56.32515,56.32516 -247.43873,247.43616 -247.4386,247.43618 -68.84983,13.77667 c -37.86739,7.57717 -69.46384,13.77666 -70.21432,13.77666 -0.81377,0 -1.18428,-0.69495 -0.91798,-1.72176 z M 573.4593,404.2983 796.41548,181.34213 l -18.9387,-18.93865 -18.9386,-18.93864 -222.7237,222.7221 -222.72376,222.72212 -4.54589,22.74748 c -2.50023,12.51109 -4.54565,23.23744 -4.54536,23.83633 3.3e-4,0.6951 8.40845,-0.59755 23.25209,-3.57479 l 23.25157,-4.6636 z"
     inkscape:connector-curvature="0" />
  <path
     style="fill:#000000;fill-opacity:1;stroke:#000000;stroke-width:21.08399963;stroke-miterlimit:4;stroke-dasharray:none;stroke-opacity:1"
     d="M 161.46894,913.0389 C 141.9083,911.23119 116.74371,903.42892 98.010322,893.36375 53.870041,869.64774 23.639336,831.55437 13.05451,786.31198 L 10.98289,777.45727 10.687841,465.57553 C 10.365028,124.38743 10.057643,144.34753 15.949705,123.91768 18.898469,113.69319 26.162552,98.090063 32.626254,88.096793 54.838401,53.755331 92.628003,27.206431 135.18834,16.042313 c 21.63765,-5.675824 11.37221,-5.459228 259.716,-5.480096 l 196.81623,-0.01918 -0.2621,26.318093 -0.26201,26.318096 -200.98149,0.49193 -232.68145,0.49192 -9.53415,2.687217 C 105.61428,78.79663 73.709238,108.07931 65.565806,142.50837 c -2.003186,8.46873 -2.007843,9.33336 -1.738114,320.73643 0.257155,296.82186 0.357605,312.53633 2.032917,318.14788 2.614608,8.75721 10.723081,24.69495 16.293306,32.02559 14.485124,19.06257 37.689225,35.2845 61.605605,43.06836 18.32401,5.96384 -6.33631,5.58216 360.5825,5.58216 h 305.27004 l 8.36278,-2.20376 c 31.71795,-8.35828 51.47366,-30.95531 61.29397,-70.10957 l 2.09755,-8.36278 0.29679,-213.74229 0.29697,-213.74228 h 26.54663 26.54671 V 560.2715 c 0,137.86873 -0.35029,210.11874 -1.0486,217.6777 -4.51474,48.87289 -27.23474,90.57543 -61.94404,113.69853 -14.10029,9.39353 -27.34984,14.93438 -47.21444,19.74451 -7.02768,1.70192 8.89665,1.7875 -317.54946,1.89635 -188.03905,0.0633 -343.66016,-0.0492 -345.82463,-0.24961 z"
     id="path4520"
     inkscape:connector-curvature="0" />
</svg>
