<?xml version="1.0" encoding="UTF-8" standalone="no"?>
<!-- Created with Inkscape (http://www.inkscape.org/) -->

<svg
   xmlns:dc="http://purl.org/dc/elements/1.1/"
   xmlns:cc="http://creativecommons.org/ns#"
   xmlns:rdf="http://www.w3.org/1999/02/22-rdf-syntax-ns#"
   xmlns:svg="http://www.w3.org/2000/svg"
   xmlns="http://www.w3.org/2000/svg"
   xmlns:sodipodi="http://sodipodi.sourceforge.net/DTD/sodipodi-0.dtd"
   xmlns:inkscape="http://www.inkscape.org/namespaces/inkscape"
   width="179.92754mm"
   height="184.93053mm"
   viewBox="0 0 179.92754 184.93053"
   version="1.1"
   id="svg4002"
   inkscape:version="0.92.3 (2405546, 2018-03-11)"
   sodipodi:docname="explorer_shop.svg">
  <defs
     id="defs3996" />
  <sodipodi:namedview
     id="base"
     pagecolor="#ffffff"
     bordercolor="#666666"
     borderopacity="1.0"
     inkscape:pageopacity="0.0"
     inkscape:pageshadow="2"
     inkscape:zoom="0.49497475"
     inkscape:cx="725.55853"
     inkscape:cy="644.48995"
     inkscape:document-units="mm"
     inkscape:current-layer="layer1"
     showgrid="false"
     inkscape:window-width="1920"
     inkscape:window-height="1001"
     inkscape:window-x="-9"
     inkscape:window-y="-9"
     inkscape:window-maximized="1" />
  <metadata
     id="metadata3999">
    <rdf:RDF>
      <cc:Work
         rdf:about="">
        <dc:format>image/svg+xml</dc:format>
        <dc:type
           rdf:resource="http://purl.org/dc/dcmitype/StillImage" />
        <dc:title></dc:title>
      </cc:Work>
    </rdf:RDF>
  </metadata>
  <g
     inkscape:label="Calque 1"
     inkscape:groupmode="layer"
     id="layer1"
     transform="translate(-11.677622,-63.548081)">
    <path
       style="fill:#000000;stroke-width:0.21769416"
       d="m 14.115788,200.15942 c -3.153432,-1.66482 -3.082845,-6.1195 0.120027,-7.57436 0.765993,-0.34794 1.49227,-0.40025 5.61544,-0.40441 l 4.735665,-0.005 -0.05521,-28.21557 -0.05521,-28.21558 -1.327837,-0.48079 c -4.249846,-1.53882 -7.964489,-4.92566 -9.800204,-8.93538 -1.087955,-2.37641 -1.394967,-3.93225 -1.536749,-7.78773 l -0.134097,-3.64638 H 80.315061 148.9525 l -0.13409,3.64638 c -0.14179,3.85548 -0.4488,5.41132 -1.53675,7.78773 -1.83571,4.00972 -5.55037,7.39656 -9.80021,8.93538 l -1.32784,0.48079 -0.0552,28.21558 -0.0552,28.21557 4.73567,0.005 c 4.12318,0.004 4.84945,0.0564 5.61544,0.40441 3.20287,1.45486 3.27346,5.90954 0.12002,7.57436 l -0.95943,0.50651 H 80.315122 15.075348 Z m 44.756338,-36.25195 v -28.15954 l -1.696377,-0.61847 c -5.902228,-2.15183 -9.939327,-7.24615 -10.94642,-13.81305 l -0.166925,-1.08846 -0.195436,0.97962 c -1.069195,5.35917 -2.847094,8.5385 -6.284147,11.23755 -1.902031,1.49363 -2.725248,1.96358 -4.702235,2.68434 l -1.696376,0.61846 -0.05595,27.94186 c -0.03077,15.36802 -0.009,28.06509 0.04829,28.21572 0.08246,0.21661 2.778976,0.26212 12.899949,0.21769 l 12.795694,-0.0563 z m -10.121227,10.72378 c -2.821926,-1.22375 -3.524417,-4.87286 -1.334527,-6.93228 l 0.679889,-0.63938 v -4.98934 -4.98933 l -0.550308,-0.43287 c -1.475116,-1.16033 -1.85315,-3.86152 -0.763065,-5.45239 1.73091,-2.5261 5.315923,-2.51957 7.075729,0.0129 1.150165,1.65515 0.818461,4.00634 -0.764142,5.41645 l -0.644327,0.5741 v 4.94596 4.94594 l 0.564723,0.37001 c 0.829248,0.54335 1.692197,2.55888 1.549882,3.61995 -0.37263,2.77814 -3.371511,4.60944 -5.813854,3.55032 z m 78.694891,-10.72378 v -28.15954 l -1.69638,-0.61847 c -1.97699,-0.72077 -2.80021,-1.19072 -4.70223,-2.68434 -3.39915,-2.66929 -5.39487,-6.224 -6.24799,-11.12871 -0.1443,-0.82955 -0.1709,-0.77288 -0.56204,1.19732 -1.04656,5.27168 -4.60261,9.81599 -9.56071,12.21773 -2.5855,1.25243 -6.211286,1.86016 -8.955203,1.50102 -6.098033,-0.79815 -10.728481,-3.95255 -13.436196,-9.15312 -0.840709,-1.61472 -1.752343,-4.41235 -1.752343,-5.3776 0,-0.2718 -0.09796,-0.49419 -0.217691,-0.49419 -0.119731,0 -0.2177,0.22239 -0.2177,0.49419 0,0.96669 -0.912143,3.76383 -1.753634,5.3776 -2.061569,3.95359 -5.412945,6.87911 -9.506529,8.29855 -0.992249,0.34406 -4.722985,1.06042 -5.556709,1.06697 -0.0898,6.6e-4 -0.163273,12.54079 -0.163273,27.86686 v 27.86557 l 32.164315,-0.0551 32.164313,-0.0552 z m -42.07569,6.00331 c -0.744864,-0.75154 -1.354298,-1.42907 -1.354298,-1.50562 0,-0.0766 5.403664,-5.54064 12.008136,-12.14241 l 12.008132,-12.00322 1.09229,1.04586 c 0.60075,0.57522 1.26588,1.24178 1.47805,1.48125 0.37771,0.42629 0.13485,0.68654 -11.630248,12.46298 -6.60881,6.61519 -12.06816,12.02761 -12.131884,12.02761 -0.06376,0 -0.725307,-0.61489 -1.470178,-1.36645 z m 12.058686,-0.0801 -1.482584,-1.44658 5.952078,-5.95503 c 3.27363,-3.27526 6.05352,-5.95503 6.17754,-5.95503 0.124,0 0.85764,0.63785 1.63029,1.41744 l 1.40483,1.41742 -5.98122,5.98417 c -3.28966,3.29131 -6.034562,5.98418 -6.099777,5.98418 -0.06525,0 -0.785739,-0.65096 -1.601157,-1.44657 z M 85.466958,157.90074 c -0.798139,-0.79031 -1.451156,-1.50877 -1.451156,-1.59657 0,-0.0878 2.692881,-2.8512 5.984178,-6.14087 l 5.984177,-5.98121 1.417419,1.40483 c 0.779591,0.77266 1.417436,1.50629 1.417436,1.63029 0,0.12401 -2.677713,2.90184 -5.950455,6.17298 l -5.950452,5.9475 z m -73.40205,-47.26952 c -0.121369,-0.0509 3.612519,-7.75776 8.297525,-17.12623 L 28.88062,76.471414 h 51.434387 51.434383 l 8.51711,17.031428 c 6.06268,12.123388 8.43302,17.063708 8.22529,17.143418 -0.34855,0.13375 -136.108154,0.11879 -136.426882,-0.0151 z m 26.798795,-6.85532 c 0.549717,-0.45623 9.232558,-18.057924 9.232558,-18.716075 0,-1.846346 -1.91439,-2.840487 -3.32824,-1.72835 -0.357672,0.28135 -2.167387,3.661877 -5.058219,9.448736 -3.816824,7.640489 -4.479698,9.108999 -4.35926,9.657359 0.140672,0.64046 0.795407,1.39645 1.425625,1.64609 0.459729,0.1821 1.721406,-0.004 2.087536,-0.30776 z m 16.943514,-0.01 c 0.788027,-0.61988 9.486892,-17.977209 9.486892,-18.929742 0,-0.905496 -1.032014,-1.943533 -1.93226,-1.943533 -1.553255,0 -1.518542,-0.05257 -6.358876,9.626325 -2.50406,5.007183 -4.549354,9.32245 -4.545108,9.58948 0.0269,1.69484 2.037164,2.68963 3.349352,1.65746 z m 25.441185,0.22452 c 1.230527,-0.56068 1.243543,-0.66973 1.243543,-10.420762 0,-9.548679 -0.03579,-9.895951 -1.076411,-10.452891 -0.537786,-0.287809 -1.663269,-0.287809 -2.201063,0 -1.040645,0.55694 -1.076412,0.904212 -1.076412,10.452891 0,7.976732 0.03983,9.024472 0.363596,9.572622 0.588444,0.99616 1.681271,1.33359 2.746747,0.84812 z m 25.811408,-0.074 c 0.62933,-0.32543 1.12005,-1.15157 1.12005,-1.88564 0,-0.56035 -0.13094,-0.81385 -5.27522,-10.212714 -2.39195,-4.37021 -4.589083,-8.16625 -4.882537,-8.435646 -1.476587,-1.355572 -4.086622,0.319133 -3.386822,2.173122 0.578975,1.533878 9.502529,17.528528 10.082769,18.072428 0.70947,0.66505 1.43959,0.75499 2.34176,0.28845 z m 17.71922,-0.55644 c 0.32926,-0.36524 0.59867,-0.90326 0.59867,-1.1956 0,-0.83877 -8.7819,-18.256465 -9.48278,-18.807778 -1.31867,-1.037272 -3.36118,-0.104732 -3.36118,1.53461 0,1.076494 8.84953,18.680768 9.5852,19.067728 0.81584,0.42912 1.96696,0.16993 2.66009,-0.59896 z M 31.442661,71.699308 c -0.819596,-0.366903 -1.968841,-1.566254 -2.272439,-2.371518 -0.652201,-1.729906 0.08505,-3.927192 1.692518,-5.044307 l 0.943936,-0.655995 48.037256,-0.06385 c 33.652388,-0.04476 48.278778,0.0057 48.843798,0.169074 2.30245,0.664963 3.6494,3.518376 2.70251,5.7251 -0.36631,0.853709 -1.54916,2.006508 -2.38034,2.319873 -0.42566,0.160483 -15.31827,0.228445 -48.763489,0.22252 -39.815525,-0.0074 -48.263726,-0.05915 -48.80375,-0.300882 z"
       id="path4028"
       inkscape:connector-curvature="0" />
    <path
       style="fill:#000000;stroke:#ffffff;stroke-width:4;stroke-miterlimit:4;stroke-dasharray:none"
       d="m 160.37091,230.7822 c -1.50493,-0.46097 -3.04694,-1.31137 -4.14301,-2.2848 -0.60378,-0.53622 -7.20626,-8.22624 -14.6722,-17.08891 -14.1877,-16.84194 -14.42867,-17.15865 -14.70003,-19.31954 -0.0462,-0.36757 -0.15821,-0.72326 -0.24903,-0.79043 -0.0908,-0.0671 -0.96441,0.30069 -1.94135,0.81748 -4.98928,2.63929 -11.07121,4.55592 -16.73805,5.27477 -6.65919,0.84475 -14.445961,0.20039 -20.960305,-1.7345 -4.829861,-1.43452 -11.248378,-4.59389 -14.736713,-7.25382 -0.527895,-0.40253 -1.348778,-1.02528 -1.824184,-1.3839 -2.884723,-2.17603 -7.308824,-6.82024 -9.606673,-10.08462 -5.557421,-7.89498 -8.518894,-16.26814 -9.233106,-26.10534 -0.300623,-4.14066 0.201024,-10.2531 1.173387,-14.29739 2.067214,-8.59807 5.780823,-15.77158 11.580156,-22.3692 2.213404,-2.51808 7.259736,-6.80869 10.13685,-8.61879 7.221551,-4.54336 15.115209,-7.124567 23.853361,-7.800017 3.746777,-0.28982 10.551167,0.22973 14.075397,1.0743 9.79071,2.346317 17.79617,6.747227 24.70156,13.579367 4.29247,4.24693 8.52513,10.61336 10.75389,16.17514 3.14391,7.84557 4.20724,14.92791 3.50488,23.34432 -0.33511,4.01581 -0.86714,6.91088 -1.92167,10.45735 -1.5522,5.22004 -4.56356,11.09855 -7.95579,15.53055 -0.67174,0.87764 -1.17948,1.67808 -1.1283,1.77879 0.0512,0.10069 0.38334,0.27022 0.73815,0.37673 2.09526,0.62899 2.32681,0.87684 16.94441,18.13805 8.01069,9.45938 14.19841,16.94162 14.50542,17.53999 0.93009,1.81278 1.25243,3.54958 1.06278,5.7262 -0.2627,3.01479 -1.38111,5.19195 -3.65511,7.11526 -1.38344,1.1701 -2.61638,1.81172 -4.32047,2.24835 -1.34368,0.34428 -4.04848,0.32081 -5.24425,-0.0454 z M 104.2623,185.04533 c 14.84076,-1.0687 27.83158,-11.03507 32.60083,-25.01094 3.23178,-9.47041 2.61102,-20.0044 -1.69094,-28.69413 -5.07209,-10.24534 -14.19978,-17.49117 -25.25814,-20.05066 -2.60748,-0.6035 -8.03471,-1.05904 -10.596017,-0.88891 -8.310951,0.55055 -15.635063,3.49233 -21.911596,8.80094 -6.294313,5.32364 -10.471456,12.17351 -12.317952,20.19952 -0.593379,2.57918 -1.03799,7.91746 -0.8779,10.54456 1.016246,16.71145 12.800992,30.58978 29.095558,34.26446 3.67643,0.82909 7.255997,1.1021 10.956467,0.83559 z"
       id="path4015"
       inkscape:connector-curvature="0" />
  </g>
</svg>
